<svg xmlns="http://www.w3.org/2000/svg" version="1.1" xmlns:xlink="http://www.w3.org/1999/xlink" xmlns:svgjs="http://svgjs.dev/svgjs" width="1500" height="250" viewBox="0 0 1500 250"><g transform="matrix(1,0,0,1,-0.9090909090909918,-0.3555880575126764)"><svg viewBox="0 0 396 66" data-background-color="#ffffff" preserveAspectRatio="xMidYMid meet" height="250" width="1500" xmlns="http://www.w3.org/2000/svg" xmlns:xlink="http://www.w3.org/1999/xlink"><g id="tight-bounds" transform="matrix(1,0,0,1,0.2400000000000091,0.09387524718334816)"><svg viewBox="0 0 395.52 65.81224950563332" height="65.81224950563332" width="395.52"><g><svg viewBox="0 0 491.2181561899065 81.73587140186915" height="65.81224950563332" width="395.52"><g transform="matrix(1,0,0,1,95.69815618990653,11.296346915887849)"><svg viewBox="0 0 395.52 59.14317757009345" height="59.14317757009345" width="395.52"><g id="textblocktransform"><svg viewBox="0 0 395.52 59.14317757009345" height="59.14317757009345" width="395.52" id="textblock"><g><svg viewBox="0 0 395.52 59.14317757009345" height="59.14317757009345" width="395.52"><g transform="matrix(1,0,0,1,0,0)"><svg width="395.52" viewBox="0.5 -37 251.43 37.6" height="59.14317757009345" data-palette-color="#f0cf90"><path d="M13.1 0.6L13.1 0.6Q9.35 0.6 7.18-1.88 5-4.35 5-8.95L5-8.95 5-21.15 0.5-21.15 0.5-25.05 5.1-25.05 6.05-33.25 9.5-33.25 9.5-25.05 16.7-25.05 16.7-21.15 9.5-21.15 9.5-8.6Q9.5-5.7 10.73-4.55 11.95-3.4 13.65-3.4L13.65-3.4Q14.9-3.4 16.03-3.8 17.15-4.2 18.1-4.75L18.1-4.75 19.35-1.15Q18.35-0.55 16.65 0.03 14.95 0.6 13.1 0.6ZM28.35 0L23.85 0 23.85-26 28.2-26 28.2-20.35Q28.85-22 29.95-23.43 31.05-24.85 32.7-25.73 34.35-26.6 36.55-26.6L36.55-26.6Q37.3-26.6 38.05-26.53 38.8-26.45 39.3-26.3L39.3-26.3 37.95-21.65Q37-22.05 35.7-22.05L35.7-22.05Q33.85-22.05 32.17-21 30.5-19.95 29.42-17.75 28.35-15.55 28.35-12.15L28.35-12.15 28.35 0ZM52.25 0.6L52.25 0.6Q49 0.6 46.34-1.05 43.7-2.7 42.12-5.73 40.55-8.75 40.55-12.85L40.55-12.85Q40.55-16.75 42.12-19.85 43.7-22.95 46.47-24.78 49.25-26.6 52.84-26.6L52.84-26.6Q55.09-26.6 56.92-25.83 58.75-25.05 60.09-23.9L60.09-23.9 60.09-26 64.2-26 64.2-6.3Q64.2-4.4 65.12-3.83 66.05-3.25 67.15-3.25L67.15-3.25 66.2 0.25Q61.4 0.25 60.4-3.65L60.4-3.65Q59.25-2.05 57.27-0.73 55.3 0.6 52.25 0.6ZM53.25-3.4L53.25-3.4Q55.15-3.4 56.84-4.33 58.55-5.25 59.7-6.65L59.7-6.65 59.7-20.6Q58.34-21.55 56.72-22.13 55.09-22.7 53.3-22.7L53.3-22.7Q50.9-22.7 49.07-21.48 47.25-20.25 46.2-18.07 45.15-15.9 45.15-13L45.15-13Q45.15-10.2 46.2-8.03 47.25-5.85 49.09-4.63 50.95-3.4 53.25-3.4ZM83.79 0L79.09 0 68.64-24.8 72.74-26.5 81.59-5.1 90.44-26.5 94.29-24.8 83.79 0ZM108.19 0.6L108.19 0.6Q102.59 0.6 99.32-2.98 96.04-6.55 96.04-13L96.04-13Q96.04-16.9 97.52-19.98 98.99-23.05 101.64-24.83 104.29-26.6 107.79-26.6L107.79-26.6Q111.54-26.6 114.02-24.98 116.49-23.35 117.74-20.6 118.99-17.85 118.99-14.55L118.99-14.55Q118.99-12.8 118.84-11.15L118.84-11.15 100.64-11.15Q101.09-7.5 103.19-5.45 105.29-3.4 108.74-3.4L108.74-3.4Q110.99-3.4 112.79-3.88 114.59-4.35 116.24-5.1L116.24-5.1 117.29-1.25Q115.49-0.45 113.24 0.08 110.99 0.6 108.19 0.6ZM100.59-14.8L100.59-14.8 114.84-14.8Q114.84-18.6 112.94-20.65 111.04-22.7 107.69-22.7L107.69-22.7Q104.79-22.7 102.89-20.68 100.99-18.65 100.59-14.8ZM132.89 0.6L132.89 0.6Q130.59 0.6 128.74-0.28 126.89-1.15 125.81-3.1 124.74-5.05 124.74-8.15L124.74-8.15 124.74-37 129.24-37 129.24-8.6Q129.24-5.9 130.36-4.6 131.49-3.3 133.49-3.3L133.49-3.3Q134.44-3.3 135.36-3.53 136.29-3.75 136.94-4.05L136.94-4.05 138.04-0.4Q137.14 0 135.81 0.3 134.49 0.6 132.89 0.6ZM161.78 0L157.28 0 157.28-26 161.63-26 161.63-21.65Q163.03-23.75 165.21-25.18 167.38-26.6 170.38-26.6L170.38-26.6Q174.78-26.6 176.96-23.95 179.13-21.3 179.13-16.95L179.13-16.95 179.13 0 174.63 0 174.63-16.45Q174.63-19.25 173.31-20.95 171.98-22.65 169.63-22.65L169.63-22.65Q167.33-22.65 165.28-21.03 163.23-19.4 161.78-17.2L161.78-17.2 161.78 0ZM197.83 0.6L197.83 0.6Q194.13 0.6 191.18-1.13 188.23-2.85 186.56-5.93 184.88-9 184.88-13L184.88-13Q184.88-17.2 186.58-20.25 188.28-23.3 191.23-24.95 194.18-26.6 197.83-26.6L197.83-26.6Q201.48-26.6 204.41-24.95 207.33-23.3 209.06-20.28 210.78-17.25 210.78-13.1L210.78-13.1Q210.78-8.95 209.08-5.88 207.38-2.8 204.46-1.1 201.53 0.6 197.83 0.6ZM197.83-3.4L197.83-3.4Q201.78-3.4 203.98-6.08 206.18-8.75 206.18-13L206.18-13Q206.18-15.6 205.08-17.78 203.98-19.95 202.11-21.28 200.23-22.6 197.83-22.6L197.83-22.6Q193.88-22.6 191.68-20 189.48-17.4 189.48-13.1L189.48-13.1Q189.48-10.5 190.58-8.28 191.68-6.05 193.56-4.73 195.43-3.4 197.83-3.4ZM226.68 0L221.73 0 213.53-24.8 217.68-26.25 224.38-5.1 230.48-24.15 235.33-24.15 241.28-5.1 247.93-26.25 251.93-24.8 243.68 0 238.73 0 232.73-19.35 226.68 0Z" opacity="1" transform="matrix(1,0,0,1,0,0)" fill="#f0cf90" class="wordmark-text-0" data-fill-palette-color="primary" id="text-0"></path></svg></g></svg></g></svg></g></svg></g><g><svg viewBox="0 0 81.73587140186915 81.73587140186915" height="81.73587140186915" width="81.73587140186915"><g><svg xmlns="http://www.w3.org/2000/svg" xmlns:xlink="http://www.w3.org/1999/xlink" version="1.1" x="0" y="0" viewBox="0 0 32 32" enable-background="new 0 0 32 32" xml:space="preserve" height="81.73587140186915" width="81.73587140186915" class="icon-icon-0" data-fill-palette-color="accent" id="icon-0"><g fill="#f0cf90" data-fill-palette-color="accent"><path d="M27.166 19.493A21.7 21.7 0 0 1 24.645 22.923C26.719 23.462 28 24.194 28 25.001 28 26.657 22.627 28.001 16 28.001S4 26.657 4 25.001C4 24.192 5.281 23.462 7.355 22.923A22 22 0 0 1 4.835 19.493C1.982 20.536 0 22.247 0 25.001 0 30.785 8.701 32 16 32S32 30.785 32 25.001C32 22.247 30.018 20.538 27.166 19.493M20 10A4 4 0 1 0 12 10 4 4 0 0 0 20 10M14 10C14 8.896 14.897 8 16 8S18 8.896 18 10C18 11.102 17.103 12 16 12S14 11.102 14 10M13.782 23.329L16.001 24.809 18.22 23.329C24.362 19.235 26 13.024 26 9.998 26 4.487 21.514 0 16 0S6 4.487 6 10C6 13.024 7.64 19.235 13.782 23.329M16 4A6 6 0 0 1 22 10S22.001 16 16.001 20C10.001 16 10 10 10 10A6 6 0 0 1 16 4" fill="#f0cf90" data-fill-palette-color="accent"></path></g></svg></g></svg></g></svg></g><defs></defs></svg><rect width="395.52" height="65.81224950563332" fill="none" stroke="none" visibility="hidden"></rect></g></svg></g></svg>